<svg xmlns="http://www.w3.org/2000/svg" viewBox="0 0 420.88101 85.653999">
  <g>
    <path
       d="m 170.925,61.374 a 2.059,2.059 0 0 0 0.12,-0.241 q 0.049,-0.049 0.244,-0.586 0.196,-0.537 0.464,-1.392 0.269,-0.854 0.562,-2.002 0.293,-1.147 0.488,-2.465 0.928,-0.049 1.734,-0.049 h 1.489 q 1.416,0 1.831,0.464 0.415,0.464 0.415,1.391 0,2.198 -0.488,4.615 -0.489,2.416 -0.489,4.858 0,2.295 0.684,4.126 0.684,1.831 1.831,3.076 1.147,1.245 2.71,1.904 1.562,0.66 3.32,0.66 2.832,0 5.2,-1.514 2.369,-1.514 4.273,-3.711 a 32.346,32.346 0 0 0 3.208,-4.402 17.575,17.575 0 0 0 0.308,1.179 q 0.732,2.49 2.246,4.468 1.513,1.978 3.857,3.223 2.344,1.245 5.566,1.245 5.03,-0.098 9.009,-3.858 2.612,-2.467 4.96,-6.511 a 52.626,52.626 0 0 0 0.147,-0.257 7.047,7.047 0 0 0 -0.004,0.274 q 0,2.198 1.098,4.004 1.099,1.807 3.028,3.076 1.928,1.27 4.565,1.953 2.637,0.684 5.664,0.684 5.615,0 10.669,-2.124 5.054,-2.124 8.911,-5.933 3.272,2.198 6.861,3.785 3.589,1.586 7.299,2.661 3.711,1.074 7.422,1.587 3.711,0.512 7.178,0.512 7.324,0 13.428,-2.441 6.103,-2.441 10.498,-6.738 4.394,-4.297 6.836,-10.205 2.441,-5.909 2.441,-12.842 0,-6.934 -2.27,-12.647 -2.271,-5.713 -6.177,-10.254 -3.906,-4.541 -9.131,-7.934 -5.225,-3.394 -11.133,-5.64 -5.908,-2.246 -12.158,-3.345 -6.25,-1.098 -12.256,-1.098 -8.74,0 -15.893,1.66 -7.154,1.66 -12.281,4.736 -5.127,3.076 -7.934,7.495 -2.808,4.419 -2.808,9.937 0,3.027 0.806,5.517 0.806,2.491 2.124,4.444 1.318,1.953 2.954,3.393 1.636,1.441 3.271,2.393 1.636,0.952 3.101,1.416 1.465,0.464 2.441,0.464 0.684,0 1.27,-0.44 0.586,-0.439 0.586,-1.269 0,-0.635 -0.366,-1.148 -0.366,-0.512 -1.001,-0.659 -0.147,-0.049 -1.05,-0.342 -0.903,-0.293 -2.173,-0.952 -1.269,-0.659 -2.734,-1.733 -1.465,-1.074 -2.71,-2.612 -1.245,-1.538 -2.051,-3.638 -0.806,-2.1 -0.806,-4.834 0,-4.785 2.637,-8.545 2.637,-3.76 7.397,-6.348 4.761,-2.588 11.377,-3.93 6.617,-1.343 14.624,-1.343 5.957,0 11.89,1.147 5.933,1.148 11.328,3.321 5.396,2.173 10.059,5.395 4.663,3.223 8.056,7.373 3.394,4.151 5.347,9.204 1.953,5.054 1.953,10.913 0,5.762 -2.002,10.938 -2.002,5.176 -5.81,9.058 -3.809,3.881 -9.302,6.176 -5.493,2.295 -12.427,2.295 -6.396,0 -13.086,-1.904 -6.689,-1.904 -12.89,-5.615 -0.098,-0.049 -0.122,-0.074 -0.025,-0.024 -0.122,-0.073 1.953,-2.539 3.295,-5.542 1.343,-3.003 2.222,-6.152 0.879,-3.15 1.465,-6.348 0.586,-3.198 1.074,-6.128 0.586,-3.564 1.221,-6.836 0.635,-3.271 1.709,-6.103 1.074,-2.832 2.71,-5.103 1.636,-2.27 4.223,-3.784 0.928,-0.537 0.928,-1.562 0,-0.879 -0.61,-1.368 -0.61,-0.488 -1.294,-0.488 -0.391,0 -0.879,0.244 -3.271,1.953 -5.298,4.712 -2.026,2.759 -3.271,6.079 -1.245,3.321 -1.953,7.08 -0.708,3.76 -1.368,7.715 -0.659,3.955 -1.513,7.935 -0.855,3.979 -2.368,7.739 -1.368,3.369 -3.516,6.055 -11.621,-6.25 -20.117,-6.25 -2.881,0 -5.298,0.732 -2.417,0.733 -4.151,2.002 a 11.095,11.095 0 0 0 -0.841,0.681 9.068,9.068 0 0 0 -0.355,0.33 1.752,1.752 0 0 0 -0.167,-0.733 2.213,2.213 0 0 0 -0.346,-0.522 q -0.512,-0.586 -1.342,-0.586 -0.537,0 -0.977,0.269 -0.439,0.268 -0.683,0.805 -1.026,2.295 -2.295,4.59 -1.27,2.295 -2.881,4.15 -1.612,1.856 -3.565,3.003 -1.953,1.148 -4.345,1.148 -2.344,0 -3.955,-0.855 -1.612,-0.854 -2.637,-2.27 1.904,-0.928 3.564,-2.197 1.66,-1.27 2.857,-2.784 1.196,-1.513 1.88,-3.271 0.683,-1.758 0.683,-3.76 0,-1.562 -0.537,-2.783 -0.537,-1.221 -1.416,-2.075 -0.879,-0.855 -1.977,-1.319 -1.099,-0.463 -2.222,-0.463 -1.904,0 -3.491,0.878 -1.587,0.879 -2.735,2.442 -1.147,1.562 -1.758,3.662 a 14.655,14.655 0 0 0 -0.327,1.378 1.726,1.726 0 0 0 -0.332,0.429 q -0.83,1.611 -2.075,3.759 -1.245,2.149 -2.808,4.078 -1.562,1.928 -3.418,3.295 -1.855,1.368 -3.955,1.368 -0.683,0 -1.513,-0.269 -0.83,-0.269 -1.563,-0.952 -0.732,-0.684 -1.22,-1.831 -0.489,-1.148 -0.489,-2.905 0,-1.221 0.147,-2.491 0.146,-1.269 0.342,-2.563 0.195,-1.294 0.341,-2.515 0.147,-1.221 0.147,-2.344 0,-2.783 -1.465,-4.003 -1.465,-1.221 -4.248,-1.221 -0.732,0 -1.538,0.024 -0.806,0.025 -1.636,0.025 0,-0.977 -0.171,-2.295 -0.171,-1.319 -0.561,-2.515 -0.391,-1.196 -1.099,-2.026 -0.708,-0.83 -1.831,-0.83 -0.977,0 -1.953,1.001 -0.977,1.001 -1.758,2.368 -0.781,1.367 -1.245,2.783 -0.464,1.416 -0.464,2.246 0,1.123 0.488,1.758 0.489,0.635 1.245,0.928 0.757,0.293 1.636,0.341 0.879,0.049 1.709,0.049 -0.439,2.149 -0.732,3.174 -0.144,0.505 -0.265,0.868 a 9.608,9.608 0 0 1 -0.101,0.29 1.967,1.967 0 0 0 -0.367,0.551 q -0.439,0.928 -1.074,2.197 -0.635,1.27 -1.465,2.637 -0.83,1.367 -1.831,2.71 -1.001,1.343 -2.099,2.393 -1.099,1.049 -2.246,1.684 -1.148,0.635 -2.32,0.635 -1.806,0 -2.832,-1.221 -1.025,-1.22 -1.538,-2.881 -0.513,-1.66 -0.659,-3.344 -0.147,-1.685 -0.195,-2.613 -0.049,-0.683 -0.562,-1.22 -0.513,-0.537 -1.196,-0.537 -0.733,0 -1.27,0.463 -0.537,0.464 -0.635,1.148 -0.341,2.539 -1.196,4.394 -0.854,1.856 -1.904,3.077 -1.05,1.22 -2.197,1.806 -1.148,0.586 -2.027,0.586 -1.22,0 -2.051,-0.488 -0.83,-0.488 -1.318,-1.27 -0.488,-0.781 -0.683,-1.733 -0.196,-0.952 -0.196,-1.88 0,-2.978 0.952,-5.151 0.953,-2.173 2.369,-3.614 1.416,-1.44 3.125,-2.124 1.709,-0.683 3.222,-0.683 1.026,0 1.831,0.22 0.806,0.219 1.392,0.512 0.586,0.293 0.928,0.562 0.341,0.268 0.439,0.366 0.537,0.537 1.318,0.537 0.733,0 1.27,-0.561 0.537,-0.562 0.537,-1.294 0,-0.684 -0.537,-1.319 -0.049,-0.049 -0.537,-0.464 -0.488,-0.415 -1.392,-0.903 -0.903,-0.488 -2.173,-0.903 -1.269,-0.415 -2.783,-0.415 -2.246,0 -4.663,0.976 -2.417,0.977 -4.419,2.93 -2.002,1.953 -3.296,4.858 -1.294,2.906 -1.294,6.714 0,1.904 0.562,3.516 0.561,1.611 1.587,2.807 1.025,1.197 2.49,1.856 1.465,0.659 3.271,0.659 2.295,0 4.59,-1.636 2.295,-1.635 3.955,-4.419 0.879,2.735 2.808,4.541 1.929,1.807 4.761,1.807 2.002,0 3.808,-0.952 1.807,-0.952 3.369,-2.417 1.563,-1.465 2.832,-3.223 1.27,-1.758 2.222,-3.369 0.952,-1.611 1.563,-2.856 0.357,-0.73 0.572,-1.166 a 167.595,167.595 0 0 1 0.113,-0.229 z M 114.844,11.865 q -2.099,3.077 -4.687,7.373 -2.588,4.297 -5.518,9.62 -2.49,4.443 -4.907,9.448 -2.417,5.005 -4.614,9.912 -2.198,4.907 -4.053,9.424 -1.856,4.516 -3.223,7.959 -1.367,3.442 -2.148,5.517 -0.781,2.075 -0.781,2.124 -0.489,1.221 -1.758,1.221 -0.635,0 -1.123,-0.415 -0.489,-0.415 -0.635,-1.05 0,-0.049 -0.464,-2.075 -0.464,-2.026 -1.245,-5.42 -0.781,-3.394 -1.782,-7.812 -1.001,-4.419 -2.1,-9.229 -1.099,-4.81 -2.222,-9.741 -1.123,-4.932 -2.099,-9.375 -3.272,9.228 -6.568,16.333 -3.296,7.104 -6.762,12.353 -3.467,5.249 -7.154,8.814 -3.686,3.564 -7.714,5.737 -4.029,2.173 -8.448,3.101 -4.419,0.927 -9.35,0.927 -2.539,0 -5.42,-0.561 -2.881,-0.562 -5.713,-1.733 -2.832,-1.172 -5.42,-2.93 Q 6.348,69.629 4.346,67.212 2.344,64.795 1.172,61.743 0,58.692 0,54.932 q 0,-3.955 1.661,-7.251 1.66,-3.296 4.492,-5.664 2.832,-2.368 6.567,-3.687 3.735,-1.318 7.886,-1.318 3.027,0 5.444,0.513 2.417,0.512 4.273,1.293 1.855,0.782 3.173,1.709 1.319,0.928 2.198,1.709 0.879,0.782 1.269,1.343 0.391,0.562 0.44,0.562 0.293,0.537 0.293,1.025 0,0.684 -0.513,1.27 -0.513,0.586 -1.343,0.586 -0.976,0 -1.562,-0.83 -0.049,-0.049 -0.782,-0.904 -0.732,-0.854 -2.392,-1.88 -1.66,-1.025 -4.273,-1.855 -2.612,-0.83 -6.372,-0.83 -3.418,0 -6.469,1.05 -3.052,1.049 -5.323,2.954 -2.27,1.904 -3.613,4.516 -1.343,2.613 -1.343,5.738 0,3.076 1.026,5.615 1.025,2.539 2.734,4.541 1.709,2.002 3.955,3.467 2.246,1.464 4.688,2.417 2.441,0.952 4.907,1.416 2.466,0.463 4.663,0.463 3.711,0 7.251,-0.561 3.54,-0.562 6.982,-2.124 3.443,-1.563 6.763,-4.297 3.32,-2.734 6.592,-7.129 3.271,-4.394 6.47,-10.596 3.198,-6.201 6.421,-14.648 0.976,-2.539 1.904,-5.469 0.928,-2.929 1.904,-5.908 -0.83,-4.297 -1.196,-7.324 -0.366,-3.027 -0.366,-5.029 0,-2.149 0.341,-3.418 0.342,-1.27 0.879,-1.929 0.537,-0.659 1.172,-0.83 0.635,-0.171 1.221,-0.171 0.488,0 1.099,0.195 0.61,0.196 1.123,0.855 0.512,0.659 0.854,1.928 0.342,1.27 0.342,3.418 0,2.344 -0.44,5.42 -0.439,3.076 -1.318,6.787 0.635,2.979 1.465,6.641 0.83,3.662 1.709,7.593 0.879,3.93 1.807,8.032 0.927,4.102 1.806,8.008 0.879,3.906 1.685,7.471 0.805,3.564 1.489,6.445 1.318,-3.32 3.223,-8.032 1.904,-4.712 4.248,-10.01 2.343,-5.298 4.956,-10.791 2.612,-5.493 5.346,-10.376 3.858,-6.934 7.08,-11.89 3.223,-4.956 5.567,-8.178 2.344,-3.223 3.686,-4.761 1.343,-1.538 1.441,-1.685 Q 119.727,0 120.508,0 q 0.83,0 1.343,0.562 0.513,0.561 0.513,1.294 0,0.341 -0.147,0.683 0,0.049 -0.561,1.441 -0.562,1.391 -1.416,3.808 -0.855,2.417 -1.88,5.664 -1.026,3.247 -2.002,6.983 -0.977,3.735 -1.734,7.812 -0.756,4.077 -1.098,8.13 -0.147,1.856 -0.244,3.882 -0.098,2.026 -0.098,4.077 0,3.223 0.293,6.494 0.293,3.272 0.977,6.299 0.683,3.027 1.855,5.688 1.172,2.662 2.881,4.664 1.709,2.002 4.077,3.222 2.368,1.221 5.493,1.319 0.781,0.048 1.245,0.659 0.464,0.61 0.464,1.294 0,0.683 -0.537,1.22 -0.537,0.538 -1.269,0.538 -0.782,0 -1.563,-0.147 -3.516,-0.488 -6.201,-2.026 -2.686,-1.538 -4.639,-3.809 -1.953,-2.27 -3.247,-5.176 -1.294,-2.905 -2.075,-6.225 -0.781,-3.321 -1.099,-6.909 -0.317,-3.589 -0.317,-7.251 0,-4.346 0.439,-8.692 0.44,-4.346 1.172,-8.472 0.733,-4.126 1.709,-7.983 0.977,-3.857 2.002,-7.178 z m 216.797,57.52 q 1.025,1.416 2.637,2.27 1.611,0.855 3.955,0.855 2.392,0 4.346,-1.148 1.953,-1.147 3.564,-3.003 1.611,-1.855 2.881,-4.15 1.269,-2.295 2.295,-4.59 a 2.021,2.021 0 0 1 0.012,-0.028 27.044,27.044 0 0 1 -0.012,-0.851 q 0,-3.222 0.561,-4.882 0.562,-1.661 0.708,-1.905 0.244,-0.439 0.659,-0.683 0.416,-0.245 0.953,-0.245 0.83,0 1.318,0.562 0.488,0.562 0.488,1.245 0,0.488 -0.195,0.83 -0.049,0.098 -0.44,1.319 -0.39,1.22 -0.39,3.662 0,2.881 0.586,5.322 0.586,2.441 1.416,4.199 0.83,1.758 1.733,2.759 0.904,1.001 1.489,1.001 0.391,0 1.148,-0.732 0.757,-0.733 1.611,-2.002 0.855,-1.27 1.758,-3.028 0.903,-1.758 1.66,-3.833 0.757,-2.075 1.221,-4.394 0.464,-2.32 0.464,-4.712 0,-0.489 -0.025,-0.952 -0.024,-0.464 -0.024,-0.953 0,-0.83 0.513,-1.391 0.512,-0.562 1.342,-0.562 0.635,0 1.148,0.391 0.513,0.391 0.659,1.074 0,-0.049 0.195,0.781 0.196,0.831 0.66,2.124 0.463,1.294 1.171,2.808 0.708,1.514 1.709,2.808 1.001,1.294 2.32,2.173 1.318,0.878 3.027,0.878 0.928,0 1.611,-0.39 0.684,-0.391 1.123,-0.879 0.44,-0.488 0.66,-0.928 0.218,-0.436 0.219,-0.487 a 1.722,1.722 0 0 1 0.247,-0.463 112.1,112.1 0 0 1 0.73,-8.23 q 0.098,-0.683 0.61,-1.196 0.513,-0.512 1.343,-0.512 0.733,0 1.221,0.561 0.488,0.562 0.488,1.294 0,0.293 -0.122,1.758 -0.122,1.465 -0.293,3.491 -0.171,2.026 -0.293,4.297 -0.122,2.27 -0.122,4.175 0,2.588 0.513,4.174 0.512,1.587 1.318,2.466 0.806,0.879 1.709,1.172 0.903,0.293 1.733,0.293 1.368,0 2.832,-0.976 1.465,-0.977 3.003,-2.735 1.538,-1.758 3.101,-4.223 1.562,-2.466 3.076,-5.494 0.244,-0.488 0.684,-0.756 0.439,-0.269 0.976,-0.269 0.782,0 1.294,0.586 0.513,0.586 0.513,1.269 0,0.489 -0.195,0.831 -0.586,1.123 -1.465,2.734 -0.879,1.611 -2.002,3.32 -1.123,1.709 -2.466,3.394 -1.343,1.684 -2.856,3.027 -1.514,1.343 -3.174,2.173 -1.66,0.83 -3.369,0.83 -2.198,0 -3.858,-0.928 -1.66,-0.927 -2.807,-2.49 -1.148,-1.562 -1.709,-3.686 a 17.067,17.067 0 0 1 -0.522,-3.291 20.182,20.182 0 0 1 -0.04,-1.251 7.308,7.308 0 0 1 -0.471,0.265 8.651,8.651 0 0 1 -0.579,0.273 q -1.196,0.512 -2.661,0.512 -1.709,0 -3.174,-0.61 -1.465,-0.61 -2.661,-1.562 -1.196,-0.953 -2.173,-2.149 -0.976,-1.196 -1.66,-2.417 -0.732,3.418 -2.099,6.372 -1.368,2.954 -2.906,5.152 -1.538,2.197 -3.1,3.466 -1.563,1.27 -2.686,1.368 -1.269,0 -2.807,-1.27 -1.539,-1.27 -2.93,-3.54 a 19.618,19.618 0 0 1 -1.348,-2.654 26.651,26.651 0 0 1 -0.906,-2.524 52.626,52.626 0 0 1 -0.061,0.107 q -2.349,4.044 -4.961,6.511 -3.979,3.76 -9.008,3.858 -3.223,0 -5.567,-1.245 -2.344,-1.245 -3.857,-3.223 -1.514,-1.978 -2.246,-4.468 -0.733,-2.49 -0.733,-4.98 0,-2.49 0.611,-4.59 0.61,-2.1 1.757,-3.662 1.148,-1.563 2.735,-2.442 1.587,-0.878 3.491,-0.878 1.123,0 2.222,0.463 1.098,0.464 1.977,1.319 0.879,0.854 1.416,2.075 0.537,1.221 0.537,2.783 0,2.002 -0.683,3.76 -0.684,1.758 -1.88,3.271 -1.196,1.514 -2.857,2.784 -1.66,1.269 -3.564,2.197 z m -76.465,-3.711 q -3.271,2.93 -7.446,4.565 -4.175,1.636 -8.765,1.636 -2.685,0 -4.687,-0.537 -2.002,-0.537 -3.345,-1.367 -1.343,-0.83 -2.002,-1.904 -0.659,-1.075 -0.659,-2.149 0,-1.123 0.732,-2.148 0.733,-1.026 2.002,-1.807 1.27,-0.781 3.003,-1.245 1.734,-0.464 3.784,-0.464 3.614,0 7.959,1.367 4.346,1.367 9.424,4.053 z m -52.783,0.537 q -0.244,-0.879 -0.415,-1.855 -0.171,-0.977 -0.171,-1.856 0,-1.416 0.269,-2.856 0.268,-1.441 0.854,-2.613 0.586,-1.172 1.514,-1.904 0.927,-0.732 2.246,-0.732 0.976,0 1.709,0.756 0.732,0.757 0.732,2.222 0,1.319 -0.488,2.612 -0.488,1.294 -1.367,2.466 -0.879,1.172 -2.124,2.149 -1.245,0.976 -2.759,1.611 z m 127.783,0 q -0.244,-0.879 -0.415,-1.855 -0.171,-0.977 -0.171,-1.856 0,-1.416 0.269,-2.856 0.268,-1.441 0.854,-2.613 0.586,-1.172 1.514,-1.904 0.928,-0.732 2.246,-0.732 0.977,0 1.709,0.756 0.732,0.757 0.732,2.222 0,1.319 -0.488,2.612 -0.488,1.294 -1.367,2.466 -0.879,1.172 -2.124,2.149 -1.245,0.976 -2.759,1.611 z m 62.207,-29.785 q 0,1.855 -1.294,3.149 -1.294,1.294 -3.149,1.294 -1.856,0 -3.15,-1.294 -1.294,-1.294 -1.294,-3.149 0,-0.928 0.342,-1.734 0.342,-0.805 0.952,-1.416 0.611,-0.61 1.416,-0.952 0.806,-0.341 1.734,-0.341 0.928,0 1.733,0.341 0.806,0.342 1.416,0.952 0.611,0.611 0.952,1.416 0.342,0.806 0.342,1.734 z m -2.734,0 q 0,0.683 -0.513,1.172 -0.513,0.488 -1.196,0.488 -0.684,0 -1.172,-0.488 -0.488,-0.489 -0.488,-1.172 0,-0.684 0.488,-1.196 0.488,-0.513 1.172,-0.513 0.683,0 1.196,0.513 0.513,0.512 0.513,1.196 z M 167.383,51.074 q 0.098,-0.39 0.293,-0.976 0.195,-0.586 0.44,-1.099 0.244,-0.513 0.463,-0.879 0.22,-0.366 0.367,-0.366 0.146,0 0.268,0.391 0.122,0.39 0.196,0.927 0.073,0.537 0.097,1.099 0.025,0.562 0.025,0.903 z"/>
  </g>
</svg>
